#!OML:ASF F:\VICON\USERDATA\INSTALL\rory3\rory3.ASF
:FULLY-SPECIFIED
:DEGREES
21
root 0.6447522981816126 17.78410338085512 1.7673641048310125 4.188774783360167 5.964918862698612 3.2277192848885656
lfemur -10.657295348137865 1.5446392165925755 -22.175208810292393
ltibia 73.1459900826307
lfoot 22.666395102730732 -23.784087225284704
ltoes -14.547055496347532
rfemur -18.154840854563858 14.25953008019827 27.2991953866722
rtibia 30.491190844465773
rfoot 7.05064868444382 -1.8976338360652916
rtoes 9.129916340571251
lowerback -8.881784189112644e-10 0.6975895780375483 2.980038071609206
upperback -0.13539461135100883 -1.0862681704829231 1.1515357791516403
thorax -7.685959437634051 -0.41026770747291036 1.8319650560193244
lowerneck -19.33382410616936 -3.6827719151600764 -2.1311259834748424
upperneck 13.929883054851842 -5.4078897495258325 3.9563276230351114
head 7.708518142782986 -2.5632783247019595 0.3777261701214097
lclavicle -1.888950115108672e-07 1.8283236260756217e-07
lhumerus -41.12109278032759 -8.608052496970801 96.8702639809328
lradius 118.96144196488419
lwrist 43.95194744855148
lhand -17.996052521727012 5.908771188324678
lfingers nan
lthumb 8.765666330519071 36.40331566202067
rclavicle -2.210434254393216e-07 3.6037574284390953e-07
rhumerus -60.51835995308386 8.097790583677295 -98.39065008259945
rradius 99.22778821439181
rwrist -11.25549247792723
rhand -24.07658860418518 -8.881784189112644e-10
rfingers nan
rthumb 0.09291357039813498 21.323235060444176
22
root 0.6514097875171541 17.799118120203623 2.68314721364369 3.9372027043617903 6.131226198659801 2.1819025233090588
lfemur -16.839181435852435 1.3385368046873136 -16.68489924158877
ltibia 92.77525278686454
lfoot 22.36077663047909 -25.916299088727044
ltoes -12.560796481227808
rfemur -10.822524180977718 10.943230265757142 33.29435850467285
rtibia 26.713888227093292
rfoot 11.269772067983162 0.733582685048022
rtoes -0.7724431006355643
lowerback -8.881784189112644e-10 0.5588697247715979 5.392714118670882
upperback -0.33878516312208284 -0.14669182304289552 1.8401014474106123
thorax -8.161982703702865 0.09166805959524157 0.8177289638825362
lowerneck -18.427363020739023 -3.83441026953675 -2.3622904662984454
upperneck 14.056620037551514 -5.883745245785464 3.257296946398899
head 7.45160417544013 -2.860642670656399 0.2564499508371808
lclavicle -1.5052375641873422e-07 1.0122151865638841e-07
lhumerus -43.13718762644438 -7.217745524508694 96.82130027002941
lradius 119.04872028592334
lwrist 43.11474829472854
lhand -18.310099131738536 5.401956898900005
lfingers nan
lthumb 8.39675108050912 35.540263861504215
rclavicle -2.460427141558524e-07 2.1980390612837878e-07
rhumerus -57.74902669276355 8.688359567131068 -99.02070916271752
rradius 98.42411772487763
rwrist -10.354427439977078
rhand -25.537921299673062 -8.881784189112644e-10
rfingers nan
rthumb -0.13620277736113237 28.278083282160758
23
root 0.638146058216401 17.759569326676235 2.694413589189066 4.414962858764872 4.814392039233433 2.2511421585616818
lfemur -18.0194344959451 1.341044146517743 -16.00623623996654
ltibia 106.08220511079551
lfoot 16.521763345588482 -23.653637559522878
ltoes -10.14823369751101
rfemur -9.014218239719666 7.319901655264555 35.882745670115014
rtibia 22.970654007197766
rfoot 14.59448970595801 1.6519977392590794
rtoes -5.891653004711888
lowerback -8.881784189112644e-10 0.5880587944642941 5.8393270678873295
upperback 0.030033234300528733 0.31301408593575836 1.7094661677017922
thorax -7.735568819788595 0.20718972371924416 0.11716635995507874
lowerneck -19.19955181529132 -3.461451247050868 -2.1552952170603694
upperneck 14.15318450861674 -6.068724535395791 3.141069718066169
head 7.164495331569116 -2.7482104239878744 0.40769339728959475
lclavicle 4.5520171621362504e-08 1.1054403047124787e-07
lhumerus -46.606708556668146 -6.595459416807222 97.21409224382488
lradius 118.17850020206235
lwrist 44.529051093621185
lhand -18.439263518588696 5.534039968030456
lfingers nan
lthumb 7.702659606371625 35.27303024480718
rclavicle -1.1266512292639194e-07 1.6981529944809746e-07
rhumerus -56.64480886724124 9.584453074065589 -99.54196676979824
rradius 98.77738295310097
rwrist -12.597096668933077
rhand -26.877810256742496 -8.881784189112644e-10
rfingers nan
rthumb -0.2921081069998364 26.6545175534622
24
root 0.6226150577663363 17.632472817537444 2.3878507389403554 3.9901690330579607 3.656278685566977 2.3508984657880134
lfemur -18.71426322798314 0.5261490004030889 -16.580357889631692
ltibia 115.90358373382989
lfoot 11.28767617806339 -20.794340943059574
ltoes -10.426916633875612
rfemur -11.297579966784458 5.071593942368251 35.156168858160854
rtibia 16.51493662815495
rfoot 14.514659036417202 0.026208938647559243
rtoes -4.326616149738203
lowerback -8.881784189112644e-10 0.368654339256552 5.345756762883294
upperback -0.0047595622586040776 0.32964717351393263 2.1878790500274294
thorax -8.09706910133186 0.19794609587708822 0.3127400463594686
lowerneck -19.51189095719261 -3.724068595647 -2.1915371730334003
upperneck 13.920969504264498 -6.836562777667074 3.1267813088526237
head 7.382272978672955 -2.91555403405476 0.4514708760675683
lclavicle -5.213922595727236e-08 5.8143145017898895e-08
lhumerus -49.70783806489692 -7.227940135872764 98.11218352012345
lradius 117.29671031269932
lwrist 45.691883319113856
lhand -18.087874590066143 6.0827516803172275
lfingers nan
lthumb 8.195538327503506 35.66452795096104
rclavicle -4.786460633296663e-08 9.321033978429159e-08
rhumerus -52.80849470514138 11.219009729149004 -100.6237730918875
rradius 99.7006855156398
rwrist -16.625078943802844
rhand -27.228174618969568 -8.881784189112644e-10
rfingers nan
rthumb -0.4090495787695505 22.51942001365705
25
root 0.5782757848206463 17.930036032009603 0.8809237072702452 4.366151529618186 3.6029453347540823 0.5647474946263009
lfemur -19.994657241515803 0.5828184008396242 -15.734214336274471
ltibia 118.01612961173612
lfoot 8.655642570051333 -19.46104929157216
ltoes -7.212317998772266
rfemur -13.210001788155918 3.734362124917899 35.09845773812803
rtibia 8.685479888981646
rfoot 9.727741951469941 -1.646369810435886
rtoes -1.8799935526597964
lowerback -8.881784189112644e-10 0.4812243238996825 5.533976755366551
upperback 0.2943405131698974 1.3000703963271731 2.5528465105064444
thorax -9.743277588456447 0.6157015174975444 -0.5559907136443496
lowerneck -18.589604895318637 -3.479617828701178 -2.2562861830236938
upperneck 12.97959529343468 -8.40707710193082 4.141312474947878
head 8.114696142981341 -3.5424583964627927 0.5819468505443559
lclavicle 3.254701419552435e-07 -5.669058622400345e-08
lhumerus -51.38043277262844 -8.75512379883583 99.19581299947664
lradius 116.52764966203299
lwrist 45.76877947413257
lhand -17.764314531231456 6.517963426449074
lfingers nan
lthumb 8.878712616270661 36.70192090769805
rclavicle 9.63905997199359e-08 -1.266875201831255e-07
rhumerus -49.239764485669355 13.840185821506735 -102.18655657915632
rradius 100.54088636396965
rwrist -18.922692938565692
rhand -26.5762450229642 -8.881784189112644e-10
rfingers nan
rthumb -0.5083103257674434 25.885153844400246
